<?xml version="1.0" encoding="UTF-8" standalone="no"?><!-- Generator: Gravit.io --><svg xmlns="http://www.w3.org/2000/svg" xmlns:xlink="http://www.w3.org/1999/xlink" style="isolation:isolate" viewBox="90.655 546.095 964.313 152.277" width="964.313pt" height="152.277pt"><g><g><g><g><rect x="183.571" y="668.804" width="14.644" height="14.644" transform="matrix(1,0,0,1,0,0)" fill="rgb(174,175,216)"/><path d=" M 234.573 546.095 L 234.573 598.108 L 90.655 679.409 L 90.655 630.426 L 234.573 546.095 Z " fill="rgb(174,175,216)"/><path d=" M 146.203 546.095 L 146.203 598.108 L 290.121 679.409 L 290.121 630.426 L 146.203 546.095 Z " fill="rgb(62,65,115)"/></g></g></g><g><path d=" M 724.218 629.738 L 698.02 667.307 L 723.772 667.307 L 723.772 675.891 L 681.075 675.891 L 707.273 638.21 L 691.331 638.21 L 691.331 638.21 Q 687.652 638.21 685.311 636.037 L 685.311 636.037 L 685.311 636.037 Q 682.97 633.863 682.97 629.738 L 682.97 629.738 L 682.97 625.279 L 690.885 625.279 L 690.885 626.728 L 690.885 626.728 Q 690.885 628.512 691.721 629.125 L 691.721 629.125 L 691.721 629.125 Q 692.557 629.738 694.675 629.738 L 694.675 629.738 L 724.218 629.738 Z  M 734.585 652.368 L 734.585 652.368 Q 734.585 645.568 737.874 639.938 L 737.874 639.938 L 737.874 639.938 Q 741.163 634.309 747.016 631.076 L 747.016 631.076 L 747.016 631.076 Q 752.868 627.843 760.226 627.843 L 760.226 627.843 L 760.226 627.843 Q 767.584 627.843 773.325 631.076 L 773.325 631.076 L 773.325 631.076 Q 779.066 634.309 782.244 639.883 L 782.244 639.883 L 782.244 639.883 Q 785.421 645.457 785.421 652.368 L 785.421 652.368 L 785.421 652.368 Q 785.421 659.28 782.244 664.91 L 782.244 664.91 L 782.244 664.91 Q 779.066 670.54 773.269 673.773 L 773.269 673.773 L 773.269 673.773 Q 767.472 677.006 760.003 677.006 L 760.003 677.006 L 760.003 677.006 Q 752.757 677.006 746.96 673.94 L 746.96 673.94 L 746.96 673.94 Q 741.163 670.874 737.874 665.3 L 737.874 665.3 L 737.874 665.3 Q 734.585 659.726 734.585 652.368 L 734.585 652.368 Z  M 745.065 652.48 L 745.065 652.48 Q 745.065 656.828 747.016 660.507 L 747.016 660.507 L 747.016 660.507 Q 748.966 664.186 752.367 666.304 L 752.367 666.304 L 752.367 666.304 Q 755.767 668.422 759.892 668.422 L 759.892 668.422 L 759.892 668.422 Q 766.358 668.422 770.594 663.851 L 770.594 663.851 L 770.594 663.851 Q 774.83 659.28 774.83 652.48 L 774.83 652.48 L 774.83 652.48 Q 774.83 645.68 770.594 641.053 L 770.594 641.053 L 770.594 641.053 Q 766.358 636.427 759.892 636.427 L 759.892 636.427 L 759.892 636.427 Q 755.655 636.427 752.311 638.601 L 752.311 638.601 L 752.311 638.601 Q 748.966 640.775 747.016 644.453 L 747.016 644.453 L 747.016 644.453 Q 745.065 648.132 745.065 652.48 L 745.065 652.48 Z " fill="rgb(255,153,0)"/><path d=" M 373.419 632.031 L 373.419 632.031 Q 379.534 632.031 383.213 635.471 L 383.213 635.471 L 383.213 635.471 Q 386.892 638.911 387.083 644.549 L 387.083 644.549 L 387.083 675.891 L 373.801 675.891 L 373.801 650.091 L 373.801 650.091 Q 373.61 646.938 372.75 645.361 L 372.75 645.361 L 372.75 645.361 Q 371.89 643.785 369.405 643.593 L 369.405 643.593 L 369.405 643.593 Q 364.723 643.593 362.096 648.132 L 362.096 648.132 L 362.096 648.132 Q 359.468 652.671 359.468 658.787 L 359.468 658.787 L 359.468 675.891 L 346.09 675.891 L 346.09 650.091 L 346.09 650.091 Q 345.899 646.938 344.943 645.361 L 344.943 645.361 L 344.943 645.361 Q 343.988 643.785 341.408 643.593 L 341.408 643.593 L 341.408 643.593 Q 336.917 643.593 334.337 648.132 L 334.337 648.132 L 334.337 648.132 Q 331.757 652.671 331.757 658.596 L 331.757 658.596 L 331.757 675.891 L 318.379 675.891 L 318.379 634.133 L 330.515 634.133 L 331.47 640.727 L 331.47 640.727 Q 336.535 632.031 346.568 632.031 L 346.568 632.031 L 346.568 632.031 Q 351.632 632.031 354.929 634.086 L 354.929 634.086 L 354.929 634.086 Q 358.226 636.14 359.468 640.153 L 359.468 640.153 L 359.468 640.153 Q 362.143 636.427 365.822 634.229 L 365.822 634.229 L 365.822 634.229 Q 369.501 632.031 373.419 632.031 L 373.419 632.031 Z  M 433.332 634.133 L 445.754 634.133 L 445.754 675.891 L 432.376 675.891 L 432.376 670.731 L 432.376 670.731 Q 426.356 677.038 418.425 677.038 L 418.425 677.038 L 418.425 677.038 Q 409.156 677.038 403.375 671.495 L 403.375 671.495 L 403.375 671.495 Q 397.594 665.953 397.594 655.06 L 397.594 655.06 L 397.594 655.06 Q 397.594 648.18 400.413 642.972 L 400.413 642.972 L 400.413 642.972 Q 403.232 637.765 407.914 634.898 L 407.914 634.898 L 407.914 634.898 Q 412.596 632.031 417.948 632.031 L 417.948 632.031 L 417.948 632.031 Q 423.49 632.031 426.739 633.703 L 426.739 633.703 L 426.739 633.703 Q 429.987 635.376 432.472 638.433 L 432.472 638.433 L 433.332 634.133 Z  M 422.247 666.144 L 422.247 666.144 Q 429.223 666.144 432.376 659.838 L 432.376 659.838 L 432.376 649.613 L 432.376 649.613 Q 431.23 646.556 428.411 644.74 L 428.411 644.74 L 428.411 644.74 Q 425.592 642.924 421.77 642.924 L 421.77 642.924 L 421.77 642.924 Q 417.374 642.924 414.269 646.173 L 414.269 646.173 L 414.269 646.173 Q 411.163 649.422 411.163 654.391 L 411.163 654.391 L 411.163 654.391 Q 411.163 657.64 412.692 660.363 L 412.692 660.363 L 412.692 660.363 Q 414.221 663.087 416.753 664.615 L 416.753 664.615 L 416.753 664.615 Q 419.285 666.144 422.247 666.144 L 422.247 666.144 Z  M 486.843 675.891 L 476.618 658.5 L 472.892 661.271 L 472.892 675.891 L 459.514 675.891 L 459.514 600.498 L 472.892 600.498 L 472.892 647.702 L 492.767 633.082 L 500.889 640.249 L 486.078 651.429 L 502.418 675.891 L 486.843 675.891 Z  M 543.22 634.133 L 555.642 634.133 L 555.642 675.891 L 542.265 675.891 L 542.265 670.731 L 542.265 670.731 Q 536.245 677.038 528.314 677.038 L 528.314 677.038 L 528.314 677.038 Q 519.045 677.038 513.264 671.495 L 513.264 671.495 L 513.264 671.495 Q 507.483 665.953 507.483 655.06 L 507.483 655.06 L 507.483 655.06 Q 507.483 648.18 510.302 642.972 L 510.302 642.972 L 510.302 642.972 Q 513.12 637.765 517.803 634.898 L 517.803 634.898 L 517.803 634.898 Q 522.485 632.031 527.836 632.031 L 527.836 632.031 L 527.836 632.031 Q 533.378 632.031 536.627 633.703 L 536.627 633.703 L 536.627 633.703 Q 539.876 635.376 542.36 638.433 L 542.36 638.433 L 543.22 634.133 Z  M 532.136 666.144 L 532.136 666.144 Q 539.112 666.144 542.265 659.838 L 542.265 659.838 L 542.265 649.613 L 542.265 649.613 Q 541.118 646.556 538.299 644.74 L 538.299 644.74 L 538.299 644.74 Q 535.48 642.924 531.658 642.924 L 531.658 642.924 L 531.658 642.924 Q 527.263 642.924 524.157 646.173 L 524.157 646.173 L 524.157 646.173 Q 521.052 649.422 521.052 654.391 L 521.052 654.391 L 521.052 654.391 Q 521.052 657.64 522.58 660.363 L 522.58 660.363 L 522.58 660.363 Q 524.109 663.087 526.642 664.615 L 526.642 664.615 L 526.642 664.615 Q 529.174 666.144 532.136 666.144 L 532.136 666.144 Z  M 601.891 634.133 L 614.313 634.133 L 614.313 675.891 L 600.936 675.891 L 600.936 670.731 L 600.936 670.731 Q 594.916 677.038 586.985 677.038 L 586.985 677.038 L 586.985 677.038 Q 577.716 677.038 571.935 671.495 L 571.935 671.495 L 571.935 671.495 Q 566.154 665.953 566.154 655.06 L 566.154 655.06 L 566.154 655.06 Q 566.154 648.18 568.972 642.972 L 568.972 642.972 L 568.972 642.972 Q 571.791 637.765 576.474 634.898 L 576.474 634.898 L 576.474 634.898 Q 581.156 632.031 586.507 632.031 L 586.507 632.031 L 586.507 632.031 Q 592.049 632.031 595.298 633.703 L 595.298 633.703 L 595.298 633.703 Q 598.547 635.376 601.031 638.433 L 601.031 638.433 L 601.891 634.133 Z  M 590.807 666.144 L 590.807 666.144 Q 597.782 666.144 600.936 659.838 L 600.936 659.838 L 600.936 649.613 L 600.936 649.613 Q 599.789 646.556 596.97 644.74 L 596.97 644.74 L 596.97 644.74 Q 594.151 642.924 590.329 642.924 L 590.329 642.924 L 590.329 642.924 Q 585.933 642.924 582.828 646.173 L 582.828 646.173 L 582.828 646.173 Q 579.722 649.422 579.722 654.391 L 579.722 654.391 L 579.722 654.391 Q 579.722 657.64 581.251 660.363 L 581.251 660.363 L 581.251 660.363 Q 582.78 663.087 585.312 664.615 L 585.312 664.615 L 585.312 664.615 Q 587.845 666.144 590.807 666.144 L 590.807 666.144 Z  M 657.122 632.127 L 657.122 632.127 Q 663.046 632.127 667.012 635.662 L 667.012 635.662 L 667.012 635.662 Q 670.978 639.198 671.073 644.644 L 671.073 644.644 L 671.073 675.891 L 657.695 675.891 L 657.695 649.613 L 657.695 649.613 Q 657.409 643.498 651.58 643.498 L 651.58 643.498 L 651.58 643.498 Q 646.993 643.498 644.222 647.798 L 644.222 647.798 L 644.222 647.798 Q 641.451 652.098 641.451 658.882 L 641.451 658.882 L 641.451 675.891 L 628.073 675.891 L 628.073 634.133 L 640.209 634.133 L 641.164 640.822 L 641.164 640.822 Q 643.458 636.713 647.519 634.42 L 647.519 634.42 L 647.519 634.42 Q 651.58 632.127 657.122 632.127 L 657.122 632.127 Z " fill="rgb(62,65,115)"/></g><g><path d="M 829.853 584.145 L 1025.269 584.145 C 1041.66 584.145 1054.968 597.453 1054.968 613.844 L 1054.968 668.673 C 1054.968 685.064 1041.66 698.372 1025.269 698.372 L 829.853 698.372 C 813.462 698.372 800.154 685.064 800.154 668.673 L 800.154 613.844 C 800.154 597.453 813.462 584.145 829.853 584.145 Z" style="stroke:none;fill:#000000;stroke-miterlimit:10;"/><path d=" M 886.488 665.402 L 886.488 665.402 Q 883.717 667.6 879.56 668.938 L 879.56 668.938 L 879.56 668.938 Q 875.404 670.275 871.39 670.275 L 871.39 670.275 L 871.39 670.275 Q 860.497 670.275 854.143 664.399 L 854.143 664.399 L 854.143 664.399 Q 847.788 658.522 847.788 648.202 L 847.788 648.202 L 847.788 648.202 Q 847.788 641.513 850.894 636.497 L 850.894 636.497 L 850.894 636.497 Q 853.999 631.48 859.064 628.852 L 859.064 628.852 L 859.064 628.852 Q 864.128 626.224 869.957 626.224 L 869.957 626.224 L 869.957 626.224 Q 880.373 626.224 886.87 631.767 L 886.87 631.767 L 880.373 640.367 L 880.373 640.367 Q 876.264 637.118 871.199 637.118 L 871.199 637.118 L 871.199 637.118 Q 866.995 637.118 864.08 640.271 L 864.08 640.271 L 864.08 640.271 Q 861.166 643.424 861.166 648.202 L 861.166 648.202 L 861.166 648.202 Q 861.166 652.98 864.319 656.181 L 864.319 656.181 L 864.319 656.181 Q 867.473 659.382 872.537 659.382 L 872.537 659.382 L 872.537 659.382 Q 876.933 659.382 879.799 656.993 L 879.799 656.993 L 886.488 665.402 Z  M 893.559 647.724 L 893.559 647.724 Q 893.559 641.322 896.569 636.258 L 896.569 636.258 L 896.569 636.258 Q 899.579 631.193 905.074 628.279 L 905.074 628.279 L 905.074 628.279 Q 910.568 625.364 917.544 625.364 L 917.544 625.364 L 917.544 625.364 Q 924.519 625.364 929.822 628.279 L 929.822 628.279 L 929.822 628.279 Q 935.126 631.193 937.992 636.258 L 937.992 636.258 L 937.992 636.258 Q 940.859 641.322 940.859 647.724 L 940.859 647.724 L 940.859 647.724 Q 940.859 654.127 937.992 659.286 L 937.992 659.286 L 937.992 659.286 Q 935.126 664.446 929.822 667.361 L 929.822 667.361 L 929.822 667.361 Q 924.519 670.275 917.352 670.275 L 917.352 670.275 L 917.352 670.275 Q 910.377 670.275 904.978 667.552 L 904.978 667.552 L 904.978 667.552 Q 899.579 664.829 896.569 659.764 L 896.569 659.764 L 896.569 659.764 Q 893.559 654.7 893.559 647.724 L 893.559 647.724 Z  M 907.032 647.82 L 907.032 647.82 Q 907.032 652.789 909.899 656.085 L 909.899 656.085 L 909.899 656.085 Q 912.766 659.382 917.161 659.382 L 917.161 659.382 L 917.161 659.382 Q 921.748 659.382 924.567 656.133 L 924.567 656.133 L 924.567 656.133 Q 927.386 652.884 927.386 647.82 L 927.386 647.82 L 927.386 647.82 Q 927.386 642.755 924.567 639.507 L 924.567 639.507 L 924.567 639.507 Q 921.748 636.258 917.161 636.258 L 917.161 636.258 L 917.161 636.258 Q 912.766 636.258 909.899 639.554 L 909.899 639.554 L 909.899 639.554 Q 907.032 642.851 907.032 647.82 L 907.032 647.82 Z  M 1006.41 625.269 L 1006.41 625.269 Q 1012.525 625.269 1016.204 628.709 L 1016.204 628.709 L 1016.204 628.709 Q 1019.883 632.149 1020.074 637.787 L 1020.074 637.787 L 1020.074 669.129 L 1006.792 669.129 L 1006.792 643.329 L 1006.792 643.329 Q 1006.601 640.175 1005.741 638.599 L 1005.741 638.599 L 1005.741 638.599 Q 1004.881 637.022 1002.396 636.831 L 1002.396 636.831 L 1002.396 636.831 Q 997.714 636.831 995.087 641.37 L 995.087 641.37 L 995.087 641.37 Q 992.459 645.909 992.459 652.024 L 992.459 652.024 L 992.459 669.129 L 979.081 669.129 L 979.081 643.329 L 979.081 643.329 Q 978.89 640.175 977.934 638.599 L 977.934 638.599 L 977.934 638.599 Q 976.979 637.022 974.399 636.831 L 974.399 636.831 L 974.399 636.831 Q 969.908 636.831 967.328 641.37 L 967.328 641.37 L 967.328 641.37 Q 964.748 645.909 964.748 651.833 L 964.748 651.833 L 964.748 669.129 L 951.37 669.129 L 951.37 627.371 L 963.506 627.371 L 964.461 633.964 L 964.461 633.964 Q 969.525 625.269 979.559 625.269 L 979.559 625.269 L 979.559 625.269 Q 984.623 625.269 987.92 627.323 L 987.92 627.323 L 987.92 627.323 Q 991.216 629.378 992.459 633.391 L 992.459 633.391 L 992.459 633.391 Q 995.134 629.664 998.813 627.467 L 998.813 627.467 L 998.813 627.467 Q 1002.492 625.269 1006.41 625.269 L 1006.41 625.269 Z  M 826.655 661.102 L 826.655 661.102 Q 826.655 657.758 829.107 655.361 L 829.107 655.361 L 829.107 655.361 Q 831.56 652.964 834.681 652.964 L 834.681 652.964 L 834.681 652.964 Q 837.58 652.964 840.032 655.361 L 840.032 655.361 L 840.032 655.361 Q 842.485 657.758 842.485 661.102 L 842.485 661.102 L 842.485 661.102 Q 842.485 664.558 840.088 666.843 L 840.088 666.843 L 840.088 666.843 Q 837.691 669.129 834.681 669.129 L 834.681 669.129 L 834.681 669.129 Q 831.56 669.129 829.107 666.899 L 829.107 666.899 L 829.107 666.899 Q 826.655 664.669 826.655 661.102 L 826.655 661.102 Z " fill="rgb(255,255,255)"/></g></g></svg>